<?xml version="1.0" encoding="UTF-8" standalone="no"?>
<svg
   xmlns:dc="http://purl.org/dc/elements/1.1/"
   xmlns:cc="http://creativecommons.org/ns#"
   xmlns:rdf="http://www.w3.org/1999/02/22-rdf-syntax-ns#"
   xmlns:svg="http://www.w3.org/2000/svg"
   xmlns="http://www.w3.org/2000/svg"
   xmlns:sodipodi="http://sodipodi.sourceforge.net/DTD/sodipodi-0.dtd"
   xmlns:inkscape="http://www.inkscape.org/namespaces/inkscape"
   version="1.1"
   id="Layer_1"
   x="0px"
   y="0px"
   width="138.584"
   height="160"
   viewBox="0 0 138.584 160"
   enable-background="new 0 0 192 192"
   xml:space="preserve"
   sodipodi:docname="chartjs.svg"
   inkscape:version="0.92.4 (5da689c313, 2019-01-14)"><metadata
   id="metadata317"><rdf:RDF><cc:Work
       rdf:about=""><dc:format>image/svg+xml</dc:format><dc:type
         rdf:resource="http://purl.org/dc/dcmitype/StillImage" /><dc:title></dc:title></cc:Work></rdf:RDF></metadata><defs
   id="defs315" /><sodipodi:namedview
   pagecolor="#ffffff"
   bordercolor="#666666"
   borderopacity="1"
   objecttolerance="10"
   gridtolerance="10"
   guidetolerance="10"
   inkscape:pageopacity="0"
   inkscape:pageshadow="2"
   inkscape:window-width="1920"
   inkscape:window-height="1017"
   id="namedview313"
   showgrid="false"
   fit-margin-top="0"
   fit-margin-left="0"
   fit-margin-right="0"
   fit-margin-bottom="0"
   inkscape:zoom="3.4766083"
   inkscape:cx="40.307542"
   inkscape:cy="107.70125"
   inkscape:window-x="-8"
   inkscape:window-y="-8"
   inkscape:window-maximized="1"
   inkscape:current-layer="Layer_1" />
<path
   d="m 134.563,80.556 c -22.368,0.439 -17.709,14.599 -33.473,18.18 -16.014,3.638 -18.542,-39.111 -34.552,-39.111 -16.012,0 -19.559,41.526 -39.608,70.034 l -0.572,0.807 42.985,24.813 65.22,-37.651 z"
   id="path304"
   inkscape:connector-curvature="0"
   style="fill:#36a2eb" />
<path
   d="m 134.563,79.267 c -7.488,-9.61 -12.567,-20.658 -23.494,-20.658 -19.337,0 -14.249,31.545 -35.62,31.545 -21.373,0 -23.62,-33.931 -47.832,-2.035 -7.715,10.163 -13.925,21.495 -18.803,32.218 l 60.529,34.943 65.22,-37.651 z"
   id="path306"
   inkscape:connector-curvature="0"
   style="fill:#ffce56" />
<path
   d="m 4.121,92.334 c 7.338,-20.321 10.505,-36.779 24.514,-36.779 21.371,0 26.458,60.039 44.779,53.931 18.318,-6.105 16.282,-38.669 44.779,-38.669 5.424,0 10.962,3.323 16.371,8.698 v 38.113 L 69.344,155.279 4.122,117.628 V 92.334 Z"
   id="path308"
   inkscape:connector-curvature="0"
   style="opacity:0.8;fill:#fe6184" />
<path
   d="M 69.292,160 0,120.001 V 40 L 69.292,0 138.584,40 v 80 z M 8.141,115.301 69.292,150.602 130.443,115.301 V 44.7 L 69.292,9.399 8.141,44.7 Z"
   id="path310"
   inkscape:connector-curvature="0"
   style="fill:#e7e9ed" />
<path
   style="fill:#000000;stroke-width:0.28763667"
   d="M 34.626718,139.9852 0.03841005,120.00642 0.04397715,79.982777 0.04954421,39.959137 34.445032,20.112208 C 53.36255,9.196397 68.989502,0.23088095 69.17159,0.18883917 69.353681,0.14679736 85.035042,9.0797687 104.01906,20.039886 l 34.5164,19.927486 0.0729,39.990591 0.0729,39.990587 -33.8394,19.54608 c -18.611673,10.75035 -34.241579,19.75382 -34.733129,20.00772 l -0.893725,0.46164 z m 65.654182,-7.11942 30.41902,-17.54584 -0.19895,-35.379307 C 130.39155,60.482013 130.213,44.524256 130.10419,44.478951 129.99538,44.433645 116.27076,36.520789 99.60503,26.89483 L 69.303699,9.3930838 64.657176,12.078189 C 62.101587,13.554996 48.361368,21.487045 34.123354,29.704963 L 8.2360548,44.646631 8.1641908,80.016005 8.0923265,115.38538 38.509859,132.9649 c 16.729641,9.66875 30.627793,17.54965 30.884779,17.51312 0.256986,-0.0365 14.155805,-7.96203 30.886262,-17.61224 z"
   id="path4827"
   inkscape:connector-curvature="0" /></svg>