<?xml version="1.0" encoding="UTF-8" standalone="no"?>
<svg
   xmlns:dc="http://purl.org/dc/elements/1.1/"
   xmlns:cc="http://creativecommons.org/ns#"
   xmlns:rdf="http://www.w3.org/1999/02/22-rdf-syntax-ns#"
   xmlns:svg="http://www.w3.org/2000/svg"
   xmlns="http://www.w3.org/2000/svg"
   xmlns:xlink="http://www.w3.org/1999/xlink"
   xmlns:sodipodi="http://sodipodi.sourceforge.net/DTD/sodipodi-0.dtd"
   xmlns:inkscape="http://www.inkscape.org/namespaces/inkscape"
   viewBox="0 0 63.967358 63.947094"
   version="1.1"
   id="svg833"
   sodipodi:docname="git.svg"
   width="63.967358"
   height="63.947094"
   style="fill:#ffffff;fill-rule:evenodd;stroke:#000000;stroke-linecap:round;stroke-linejoin:round"
   inkscape:version="0.92.4 (5da689c313, 2019-01-14)">
  <metadata
     id="metadata839">
    <rdf:RDF>
      <cc:Work
         rdf:about="">
        <dc:format>image/svg+xml</dc:format>
        <dc:type
           rdf:resource="http://purl.org/dc/dcmitype/StillImage" />
        <dc:title></dc:title>
      </cc:Work>
    </rdf:RDF>
  </metadata>
  <defs
     id="defs837" />
  <sodipodi:namedview
     pagecolor="#ffffff"
     bordercolor="#666666"
     borderopacity="1"
     objecttolerance="10"
     gridtolerance="10"
     guidetolerance="10"
     inkscape:pageopacity="0"
     inkscape:pageshadow="2"
     inkscape:window-width="1920"
     inkscape:window-height="1017"
     id="namedview835"
     showgrid="false"
     fit-margin-top="0"
     fit-margin-left="0"
     fit-margin-right="0"
     fit-margin-bottom="0"
     inkscape:zoom="11.313709"
     inkscape:cx="30.448051"
     inkscape:cy="31.020809"
     inkscape:window-x="-8"
     inkscape:window-y="-8"
     inkscape:window-maximized="1"
     inkscape:current-layer="svg833" />
  <use
     xlink:href="#A"
     x="1"
     y="1"
     id="use828"
     width="100%"
     height="100%" />
  <symbol
     id="A"
     overflow="visible"
     style="overflow:visible"
     transform="translate(-1.0120387,-1.0287154)">
    <path
       d="M 62.795,29.15 34.853,1.207 a 4.12,4.12 0 0 0 -5.828,0 l -5.8,5.8 7.36,7.36 c 1.712,-0.6 3.672,-0.2 5.036,1.174 a 4.9,4.9 0 0 1 1.162,5.066 l 7.094,7.094 c 1.716,-0.592 3.696,-0.2 5.066,1.164 1.24,1.24 1.723,3.046 1.27,4.738 -0.453,1.692 -1.776,3.015 -3.47,3.468 -1.694,0.453 -3.5,-0.03 -4.738,-1.27 -1.44,-1.44 -1.796,-3.56 -1.068,-5.334 L 34.32,23.85 v 17.4 c 0.48,0.238 0.92,0.55 1.3,0.928 1.915,1.915 1.915,5.02 -10e-4,6.935 -1.916,1.915 -5.02,1.915 -6.935,0 -1.915,-1.915 -1.915,-5.02 0,-6.935 a 4.71,4.71 0 0 1 1.606,-1.07 V 23.547 a 4.87,4.87 0 0 1 -1.606,-1.07 4.9,4.9 0 0 1 -1.056,-5.362 L 20.37,9.86 1.21,29 A 4.12,4.12 0 0 0 0,31.914 4.12,4.12 0 0 0 1.209,34.829 l 27.944,27.94 a 4.12,4.12 0 0 0 5.828,0 L 62.795,35 a 4.12,4.12 0 0 0 0,-5.83"
       id="path830"
       inkscape:connector-curvature="0"
       style="fill:#f03c2e;fill-rule:nonzero;stroke:none" />
  </symbol>
  <path
     style="fill:#000000;stroke-width:0.07783019"
     d="M 31.186309,63.810725 C 30.91987,63.752831 30.447052,63.574852 30.135602,63.415216 29.599806,63.140589 28.793978,62.349643 15.163342,48.719471 1.0068517,34.563461 0.75252529,34.303864 0.47842059,33.730247 -0.16279068,32.388389 -0.10162404,30.982558 0.65207879,29.738954 0.83449189,29.437974 3.8334228,26.388161 10.629567,19.592179 l 9.716688,-9.7164544 3.608433,3.6078084 3.608434,3.607808 -0.150051,0.478061 c -0.528028,1.682291 -0.03683,3.591531 1.25386,4.873608 0.347865,0.345545 0.791234,0.692776 1.077516,0.843873 l 0.486439,0.256737 v 8.746769 8.746768 l -0.486439,0.256738 c -0.287102,0.15153 -0.730036,0.498719 -1.080887,0.847243 -1.57775,1.567286 -1.898798,3.959152 -0.798475,5.948779 0.354985,0.641891 1.373587,1.595394 2.064528,1.932583 1.88967,0.922186 4.06469,0.601307 5.56146,-0.820479 0.678863,-0.644854 1.032324,-1.192255 1.316535,-2.038906 0.701358,-2.089309 -0.06886,-4.360505 -1.903961,-5.614376 L 34.355886,41.17447 v -8.644756 -8.644755 l 3.267467,3.268753 3.267467,3.268752 -0.163899,0.505896 c -0.197514,0.60965 -0.235623,1.839383 -0.07718,2.490567 0.398647,1.638432 1.63675,2.990809 3.257591,3.558259 0.526972,0.18449 0.726386,0.212242 1.539359,0.214226 0.753377,0.0018 1.039304,-0.0311 1.478774,-0.170342 1.522732,-0.482471 2.769437,-1.729176 3.251907,-3.251908 0.142039,-0.448291 0.171562,-0.717167 0.166643,-1.517688 -0.0053,-0.856003 -0.031,-1.039539 -0.214276,-1.527777 -0.328954,-0.876331 -0.581377,-1.270099 -1.224048,-1.909465 -0.64754,-0.64421 -1.473179,-1.112159 -2.330462,-1.320843 -0.547882,-0.133367 -1.877146,-0.115186 -2.345507,0.03208 l -0.360837,0.113457 -3.517101,-3.517738 -3.517101,-3.517738 0.122632,-0.593698 c 0.237909,-1.151792 0.10521,-2.149264 -0.431898,-3.246487 -0.256855,-0.524714 -0.45436,-0.790706 -0.954822,-1.285922 -1.228685,-1.215807 -2.7723,-1.674265 -4.444568,-1.320051 l -0.544725,0.115382 -3.658109,-3.659769 -3.658109,-3.659769 3.113207,-3.0992821 c 2.852569,-2.8398098 3.160367,-3.12262721 3.676497,-3.37812901 0.723208,-0.3580115 1.28906,-0.4722851 2.118064,-0.4277427 0.742282,0.039883 1.376288,0.2356941 1.937744,0.5984674 0.199119,0.1286567 6.829458,6.70577431 14.734086,14.61581741 15.50538,15.516 14.617965,14.582473 14.961179,15.738592 0.161811,0.545061 0.161811,1.567017 0,2.112078 -0.343965,1.158647 0.549264,0.219793 -14.921772,15.683965 -13.525702,13.5197 -14.365401,14.343574 -14.897331,14.616564 -0.935348,0.480028 -1.833297,0.607407 -2.800449,0.397259 z"
     id="path841"
     inkscape:connector-curvature="0" />
  <path
     style="fill:#000000;stroke-width:0.00486439"
     d="m 63.521446,30.190133 c -0.309818,-0.466655 -1.09659,-1.328112 -2.780884,-3.044858 l -0.218338,-0.222546 h 0.0285 0.02849 l 1.100564,1.100572 c 0.67635,0.676355 1.100563,1.104063 1.100563,1.109632 0,0.005 0.02777,0.03783 0.06202,0.07332 0.239352,0.248 0.445367,0.525899 0.622715,0.839992 0.03968,0.07028 0.119623,0.227931 0.116938,0.230616 -9.88e-4,9.88e-4 -0.02824,-0.03804 -0.06057,-0.08673 z"
     id="path843"
     inkscape:connector-curvature="0" />
  <path
     style="fill:#000000;stroke-width:0.00486439"
     d="m 63.908881,32.847147 c 0,-0.0038 0.0054,-0.04301 0.01191,-0.08715 0.01308,-0.08819 0.0283,-0.234277 0.03774,-0.362397 0.0082,-0.110618 0.0082,-0.570395 0,-0.681014 -0.0086,-0.116738 -0.02425,-0.270722 -0.03533,-0.347803 -0.0094,-0.06573 -0.01128,-0.08613 -0.0074,-0.08224 0.0036,0.0036 0.03124,0.177887 0.04152,0.261396 0.02518,0.204638 0.0344,0.40885 0.02859,0.633192 -0.005,0.194676 -0.02185,0.365239 -0.05585,0.566701 -0.01564,0.0927 -0.0212,0.118762 -0.0212,0.09931 z"
     id="path845"
     inkscape:connector-curvature="0" />
  <path
     style="fill:#000000;stroke-width:0.00486439"
     d="m 60.047177,37.672455 c 1.703622,-1.725723 2.648403,-2.720062 3.115523,-3.278947 0.18031,-0.215733 0.324643,-0.40711 0.398325,-0.528157 0.0102,-0.01676 0.01944,-0.02958 0.02054,-0.02849 0.003,0.003 -0.06461,0.136005 -0.114003,0.224356 -0.144108,0.257784 -0.300869,0.47963 -0.508714,0.719929 -0.09947,0.115006 -3.163287,3.173673 -3.179209,3.17387 -0.009,1.11e-4 0.04991,-0.0621 0.267541,-0.282561 z"
     id="path847"
     inkscape:connector-curvature="0" />
  <path
     style="fill:#000000;stroke-width:0.00390625"
     d="m 60.155806,26.549566 c -0.753195,-0.764342 -1.807018,-1.826478 -3.145772,-3.170587 -0.649533,-0.652131 -0.688208,-0.691718 -0.67578,-0.691718 0.01235,0 0.146467,0.133286 2.128413,2.115235 l 2.115232,2.115234 h -0.02965 -0.02965 z"
     id="path849"
     inkscape:connector-curvature="0" />
  <path
     style="fill:#000000;stroke-width:0.00552427"
     d="M 40.951824,7.3271096 C 37.61629,4.0066684 34.849065,1.2759326 34.269305,0.73270859 c -0.04327,-0.040543 -0.07759,-0.074796 -0.07627,-0.076117 0.0034,-0.00342 0.112813,0.072188 0.210187,0.1452555 0.105233,0.078966 0.214133,0.1698796 0.316965,0.26461401 0.04443,0.040932 1.573578,1.567366 3.398106,3.3920766 2.931046,2.9313405 3.315393,3.317628 3.300752,3.3174186 -0.01447,-2.099e-4 -0.07385,-0.05726 -0.46722,-0.4488471 z"
     id="path851"
     inkscape:connector-curvature="0" />
  <path
     style="fill:#000000;stroke-width:0.00390625"
     d=""
     id="path853"
     inkscape:connector-curvature="0" />
  <path
     style="fill:#000000;stroke-width:0.00390625"
     d=""
     id="path855"
     inkscape:connector-curvature="0" />
  <path
     style="fill:#000000;stroke-width:0.00390625"
     d="m 27.601976,17.096014 c 3.65e-4,-0.01565 0.0016,-0.01926 0.0054,-0.01612 0.0061,0.005 0.0059,0.0097 -6.46e-4,0.02457 -0.0051,0.01157 -0.0052,0.01145 -0.0047,-0.0085 z"
     id="path857"
     inkscape:connector-curvature="0" />
</svg>
