<?xml version="1.0" encoding="UTF-8" standalone="no"?>
<svg
   xmlns:dc="http://purl.org/dc/elements/1.1/"
   xmlns:cc="http://creativecommons.org/ns#"
   xmlns:rdf="http://www.w3.org/1999/02/22-rdf-syntax-ns#"
   xmlns:svg="http://www.w3.org/2000/svg"
   xmlns="http://www.w3.org/2000/svg"
   xmlns:xlink="http://www.w3.org/1999/xlink"
   xmlns:sodipodi="http://sodipodi.sourceforge.net/DTD/sodipodi-0.dtd"
   xmlns:inkscape="http://www.inkscape.org/namespaces/inkscape"
   viewBox="0 0 66 64"
   fill="#fff"
   fill-rule="evenodd"
   stroke="#000"
   stroke-linecap="round"
   stroke-linejoin="round"
   version="1.1"
   id="svg1507"
   sodipodi:docname="jquery.svg"
   inkscape:version="0.92.4 (5da689c313, 2019-01-14)">
  <metadata
     id="metadata1513">
    <rdf:RDF>
      <cc:Work
         rdf:about="">
        <dc:format>image/svg+xml</dc:format>
        <dc:type
           rdf:resource="http://purl.org/dc/dcmitype/StillImage" />
      </cc:Work>
    </rdf:RDF>
  </metadata>
  <defs
     id="defs1511" />
  <sodipodi:namedview
     pagecolor="#ffffff"
     bordercolor="#666666"
     borderopacity="1"
     objecttolerance="10"
     gridtolerance="10"
     guidetolerance="10"
     inkscape:pageopacity="0"
     inkscape:pageshadow="2"
     inkscape:window-width="1920"
     inkscape:window-height="1017"
     id="namedview1509"
     showgrid="false"
     inkscape:zoom="10.429825"
     inkscape:cx="30.571285"
     inkscape:cy="30.915455"
     inkscape:window-x="-8"
     inkscape:window-y="-8"
     inkscape:window-maximized="1"
     inkscape:current-layer="svg1507" />
  <use
     xlink:href="#A"
     x="1"
     y="1"
     id="use1502" />
  <symbol
     id="A"
     overflow="visible">
    <path
       d="M4.062 14.47c-5.66 8.14-4.96 18.728-.632 27.4.1.208.2.412.316.616l.2.4c.04.076.084.15.126.224.074.14.15.268.226.404l.414.708.236.388.48.75.204.316.694 1 .136.184a32.66 32.66 0 0 0 .632.84l.24.304.584.72.224.268c.266.314.54.626.814.93.028.03.04.04.048.052l.828.872.266.268.66.648.27.26a34.11 34.11 0 0 0 .906.824l.992.84.34.272.686.536.366.28.77.552.36.254c.246.17.496.332.748.494l.324.216a41.46 41.46 0 0 0 1.17.716l.324.2.88.492c.16.086.324.168.486.25l.628.326.146.07.26.124.996.46.2.094c.385.167.772.328 1.162.482l.28.112 1.096.406.14.048a43.45 43.45 0 0 0 1.22.4l.296.088c.4.126.832.28 1.26.356 27.388 4.994 35.34-16.46 35.34-16.46-6.68 8.704-18.54 11-29.8 8.444-.426-.096-.84-.228-1.254-.352l-.312-.094c-.405-.124-.808-.256-1.208-.394l-.166-.06-1.064-.394-.3-.12a30.23 30.23 0 0 1-1.15-.48l-.23-.1-.97-.452-.28-.134c-.252-.12-.5-.254-.75-.4l-.5-.26c-.304-.16-.6-.332-.9-.504l-.304-.17c-.394-.232-.784-.47-1.17-.716-.106-.068-.2-.14-.316-.2l-.832-.554c-.092-.06-.2-.128-.268-.188l-.788-.57-.35-.264-.7-.556-.316-.254-.884-.746c-.032-.028-.066-.055-.1-.08l-.93-.846-.26-.252-.664-.66-.26-.26a16.05 16.05 0 0 1-.8-.868c-.014-.014-.028-.028-.04-.044-.283-.31-.56-.627-.832-.948l-.2-.26-.6-.74-.2-.274-.692-.92c-6.276-8.504-8.52-20.26-3.532-29.9m13.16-1.25c-4.096 5.894-3.874 13.8-.68 20.016.535 1.048 1.14 2.058 1.812 3.024.614.88 1.294 1.926 2.108 2.632.296.326.604.64.92.954l.24.24c.306.298.62.59.938.872.014.01.024.024.04.034.364.32.732.6 1.106.916l.248.194c.375.29.758.57 1.148.838l.034.024c.172.12.348.23.524.346.084.054.164.112.248.164a23.2 23.2 0 0 0 .85.52l.12.07.752.4c.088.05.2.092.268.14l.526.272c.026.014.054.024.08.036.36.18.726.35 1.096.5l.24.1a28.34 28.34 0 0 0 .9.364l.384.14.826.286.374.12c.394.12.8.28 1.194.346 21.146 3.504 26.028-12.8 26.028-12.8-4.4 6.34-12.92 9.36-22.016 7-.402-.106-.8-.22-1.198-.346-.12-.036-.24-.076-.36-.116l-.84-.288-.4-.14c-.302-.117-.602-.238-.9-.364l-.244-.1a25.14 25.14 0 0 1-1.104-.512l-.554-.28-.32-.164c-.235-.128-.47-.26-.7-.394l-.168-.094c-.286-.168-.57-.34-.848-.52-.086-.054-.17-.114-.256-.17l-.55-.364c-.387-.268-.768-.547-1.14-.836l-.26-.2c-4-3.144-7.136-7.44-8.636-12.308-1.572-5.05-1.234-10.72 1.5-15.32M36.426 2.5c-2.412 3.57-2.652 7.966-.976 11.9 1.766 4.166 5.386 7.432 9.612 9l.524.2.232.072.754.2c11.676 2.256 14.84-5.992 15.686-7.206-2.774 3.994-7.436 4.952-13.156 3.564-.452-.1-.948-.274-1.384-.428a16.92 16.92 0 0 1-1.644-.682c-1.017-.49-1.982-1.078-2.882-1.758C38.074 13.46 34.894 6.032 38.234 0"
       stroke="none"
       fill="#0868ac"
       fill-rule="nonzero"
       id="path1504" />
  </symbol>
  <path
     style="fill:#000000;stroke:none;stroke-width:0.09587888"
     d="M 32.968257,62.518582 C 32.783691,62.497339 32.023052,62.413937 31.277948,62.333244 28.400954,62.021672 26.763239,61.615183 23.955642,60.515811 21.323178,59.485016 19.410983,58.476518 16.860605,56.773866 7.838365,50.750551 2.004081,41.250109 1.1411286,31.176555 0.67212904,25.701755 1.9515597,20.287649 4.700385,16.115018 c 0.5090224,-0.77268 4.3065218,-5.623951 4.3602689,-5.570204 0.01554,0.01554 -0.1479463,0.43578 -0.363303,0.933867 C 6.1667236,17.331633 6.068239,24.354146 8.4213101,31.161939 10.468165,37.0838 14.576756,42.804193 19.773343,46.967378 c 4.33993,3.476885 9.90341,6.170464 14.796308,7.163687 7.125152,1.446355 14.145483,0.861573 19.862595,-1.654523 2.912318,-1.281708 5.871749,-3.394314 7.797836,-5.566527 0.437913,-0.493873 0.810597,-0.884963 0.828187,-0.86909 0.127114,0.114709 -1.073997,2.262487 -2.169801,3.879952 -4.197794,6.196167 -10.353818,10.369202 -17.61323,11.939631 -2.483618,0.537282 -3.511599,0.637469 -6.855341,0.668128 -1.713835,0.01571 -3.267073,0.01119 -3.45164,-0.01005 z"
     id="path2058"
     inkscape:connector-curvature="0" />
  <path
     style="fill:#000000;stroke:none;stroke-width:0.09587888"
     d="m 42.124691,42.530797 c -2.105931,-0.167924 -3.218417,-0.37665 -4.793944,-0.899451 -4.379299,-1.453163 -7.628675,-3.500805 -10.984215,-6.921865 -3.382865,-3.448918 -5.614857,-7.762692 -6.46639,-12.497601 -0.245168,-1.363248 -0.300701,-4.449739 -0.10523,-5.848612 0.355567,-2.544578 1.086786,-4.717275 2.242624,-6.663583 0.404597,-0.6812986 3.106073,-4.5687866 3.146693,-4.5281663 0.01543,0.015433 -0.143867,0.4552924 -0.354001,0.9774651 -2.240609,5.5678132 -1.565688,12.2069472 1.831704,18.0182952 1.109744,1.898253 2.338917,3.467129 4.066504,5.190354 2.109945,2.104617 4.054933,3.553179 6.483734,4.828867 9.118597,4.789397 19.580894,3.806261 25.812765,-2.42561 0.486642,-0.486643 1.054619,-1.107481 1.262171,-1.37964 0.207551,-0.27216 0.394076,-0.478127 0.414498,-0.457705 0.06073,0.06073 -0.545947,1.387077 -1.011682,2.211799 -3.860548,6.836256 -10.687417,10.565103 -19.196198,10.484994 -0.764634,-0.0072 -1.821699,-0.04749 -2.349033,-0.08954 z"
     id="path2060"
     inkscape:connector-curvature="0" />
  <path
     style="fill:#000000;stroke:none;stroke-width:0.09587888"
     d="m 48.548576,24.990634 c -1.50034,-0.230141 -2.371903,-0.52457 -4.122792,-1.392748 -1.85545,-0.920024 -2.975182,-1.72516 -4.461071,-3.207705 -1.416078,-1.412892 -2.280277,-2.591313 -3.058617,-4.170732 -1.034882,-2.099995 -1.444988,-3.801279 -1.444988,-5.994398 0,-2.7485747 0.702578,-4.855463 2.431061,-7.2902629 0.414249,-0.5835251 0.768185,-1.0459492 0.786525,-1.0276091 0.01834,0.01834 -0.07155,0.3223392 -0.199763,0.6755537 -0.797026,2.1957829 -0.835158,4.9366 -0.103702,7.4538173 0.741407,2.551461 2.139823,4.860261 4.180917,6.902738 2.654,2.655798 5.754801,4.161956 9.779646,4.750287 1.507938,0.220423 4.104178,0.151148 5.259273,-0.140333 1.694849,-0.427683 3.09639,-1.155552 4.25115,-2.207771 0.758045,-0.690732 0.781052,-0.609616 0.110546,0.389756 -1.960097,2.921475 -4.646852,4.673852 -8.072464,5.265089 -1.422452,0.245504 -3.714089,0.243064 -5.335721,-0.0057 z"
     id="path2062"
     inkscape:connector-curvature="0" />
</svg>
