<?xml version="1.0" encoding="UTF-8" standalone="no"?>
<svg
   xmlns:dc="http://purl.org/dc/elements/1.1/"
   xmlns:cc="http://creativecommons.org/ns#"
   xmlns:rdf="http://www.w3.org/1999/02/22-rdf-syntax-ns#"
   xmlns:svg="http://www.w3.org/2000/svg"
   xmlns="http://www.w3.org/2000/svg"
   xmlns:sodipodi="http://sodipodi.sourceforge.net/DTD/sodipodi-0.dtd"
   xmlns:inkscape="http://www.inkscape.org/namespaces/inkscape"
   viewBox="0 0 58.997959 56.001999"
   version="1.1"
   id="svg827"
   sodipodi:docname="redux.svg"
   width="58.997959"
   height="56.001999"
   style="fill:#ffffff;fill-rule:evenodd;stroke:#000000;stroke-linecap:round;stroke-linejoin:round"
   inkscape:version="0.92.4 (5da689c313, 2019-01-14)">
  <metadata
     id="metadata833">
    <rdf:RDF>
      <cc:Work
         rdf:about="">
        <dc:format>image/svg+xml</dc:format>
        <dc:type
           rdf:resource="http://purl.org/dc/dcmitype/StillImage" />
        <dc:title></dc:title>
      </cc:Work>
    </rdf:RDF>
  </metadata>
  <defs
     id="defs831" />
  <sodipodi:namedview
     pagecolor="#ffffff"
     bordercolor="#666666"
     borderopacity="1"
     objecttolerance="10"
     gridtolerance="10"
     guidetolerance="10"
     inkscape:pageopacity="0"
     inkscape:pageshadow="2"
     inkscape:window-width="1920"
     inkscape:window-height="1017"
     id="namedview829"
     showgrid="false"
     fit-margin-top="0"
     fit-margin-left="0"
     fit-margin-right="0"
     fit-margin-bottom="0"
     inkscape:zoom="13.25"
     inkscape:cx="29.997832"
     inkscape:cy="27"
     inkscape:window-x="-8"
     inkscape:window-y="-8"
     inkscape:window-maximized="1"
     inkscape:current-layer="svg827" />
  <path
     d="m 40.877832,39.108 c 2.177,-0.225 3.83,-2.102 3.754,-4.355 a 4.22,4.22 0 0 0 -4.204,-4.054 h -0.15 c -2.328,0.075 -4.13,2.027 -4.054,4.355 0.075,1.126 0.525,2.102 1.2,2.778 -2.553,5.03 -6.457,8.7 -12.313,11.788 -3.98,2.102 -8.11,2.853 -12.238,2.328 -3.3799997,-0.45 -6.0059997,-1.952 -7.6579997,-4.43 -2.402,-3.68 -2.628,-7.658 -0.6,-11.638 1.427,-2.853 3.68,-4.956 5.105,-6.007 -0.3,-0.976 -0.75,-2.628 -0.976,-3.83 -10.886,7.884 -9.76,18.546 -6.446,23.577 2.478,3.754 7.508,6.082 13.0639997,6.082 1.502,0 3.003,-0.15 4.505,-0.525 9.6,-1.877 16.893,-7.584 21.022,-16.068 z m 13.214,-9.3 c -5.706,-6.682 -14.115,-10.36 -23.725,-10.36 h -1.2 c -0.676,-1.35 -2.102,-2.253 -3.68,-2.253 h -0.15 c -2.327,0.075 -4.13,2.027 -4.054,4.355 a 4.22,4.22 0 0 0 4.204,4.054 h 0.15 a 4.23,4.23 0 0 0 3.679,-2.553 h 1.35 c 5.706,0 11.112,1.652 15.992,4.88 3.754,2.478 6.457,5.706 7.958,9.61 1.276,3.154 1.2,6.232 -0.15,8.86 -2.102,3.98 -5.63,6.157 -10.286,6.157 -3.003,0 -5.856,-0.9 -7.358,-1.577 -0.826,0.75 -2.328,1.952 -3.38,2.703 3.232,1.492 6.536,2.318 9.689,2.318 7.208,0 12.538,-3.98 14.566,-7.96 2.177,-4.355 2.027,-11.863 -3.604,-18.245 z m -38.14,10.586 a 4.22,4.22 0 0 0 4.204,4.054 h 0.15 c 2.328,-0.075 4.13,-2.027 4.054,-4.355 a 4.22,4.22 0 0 0 -4.204,-4.054 h -0.15 c -0.15,0 -0.376,0 -0.525,0.075 -3.078,-5.106 -4.355,-10.66 -3.904,-16.668 0.3,-4.505 1.802,-8.41 4.43,-11.638 2.177,-2.778 6.382,-4.13 9.235,-4.204 7.958,-0.15 11.337,9.76 11.562,13.74 0.976,0.225 2.628,0.75 3.754,1.126 -0.9,-12.163 -8.41,-18.47 -15.617,-18.47 -6.757,0 -12.99,4.88 -15.467,12.088 -3.454,9.61 -1.2,18.846 3.003,26.13 -0.375,0.525 -0.6,1.35 -0.525,2.177 z"
     id="path825"
     inkscape:connector-curvature="0"
     style="fill:#764abc;fill-rule:nonzero;stroke:none" />
  <path
     style="fill:#000000;stroke-width:0.0754717"
     d="m 19.57901,44.36599 c -1.56784,-0.240383 -2.887936,-1.344749 -3.380598,-2.828142 -0.327558,-0.986268 -0.28407,-2.112694 0.114318,-2.961073 l 0.185503,-0.395036 -0.432274,-0.770186 c -2.106774,-3.753652 -3.551908,-8.187819 -4.078821,-12.515214 -0.203364,-1.670182 -0.184943,-4.90672 0.03743,-6.575748 0.421767,-3.165628 1.281654,-6.148043 2.466951,-8.5563279 2.433349,-4.9440758 6.682652,-8.3904957 11.655647,-9.45337446 0.87078,-0.18611209 1.084318,-0.20208366 2.718593,-0.20333751 1.571053,-0.001205 1.864078,0.0183867 2.566038,0.17156847 5.939055,1.2960218 10.522164,6.2497902 12.301572,13.2964644 0.395403,1.565845 0.87721,4.657696 0.746226,4.788679 -0.01966,0.01966 -0.407791,-0.08508 -0.862523,-0.232756 -0.454731,-0.147671 -1.268294,-0.394965 -1.807917,-0.549542 l -0.981132,-0.281048 -0.05922,-0.598516 C 40.601924,15.015792 39.777376,12.369419 38.834372,10.493876 36.42318,5.6982526 32.785489,3.252764 28.608394,3.6193193 25.763999,3.8689252 22.746563,5.109651 20.927383,6.7776388 c -1.609174,1.4754363 -3.348758,4.3406322 -4.278742,7.0473372 -1.11166,3.235473 -1.469015,7.628105 -0.947722,11.649476 0.440004,3.394282 1.583515,6.814616 3.290276,9.841479 l 0.449378,0.796952 0.439097,-0.03176 c 2.676939,-0.193632 4.905094,2.348449 4.352879,4.966161 -0.46259,2.19285 -2.503513,3.648351 -4.653539,3.318708 z"
     id="path835"
     inkscape:connector-curvature="0" />
  <path
     style="fill:#000000;stroke-width:0.0754717"
     d="m 41.631457,55.910853 c -2.300093,-0.20481 -4.674267,-0.797281 -6.960041,-1.736865 -0.515224,-0.211788 -0.982502,-0.41066 -1.038394,-0.441939 -0.07012,-0.03924 0.245557,-0.327009 1.018386,-0.928342 0.616005,-0.47931 1.357128,-1.075478 1.64694,-1.324819 l 0.52693,-0.453346 0.37873,0.153176 c 0.741507,0.299902 2.184879,0.748418 3.002289,0.932938 3.558847,0.803362 6.674576,0.576544 9.263233,-0.674341 2.064668,-0.997684 3.949595,-2.900323 5.051862,-5.099332 0.701646,-1.399775 1.001759,-2.683955 1.007148,-4.309569 0.0069,-2.086537 -0.491843,-3.921755 -1.72293,-6.339623 -1.560284,-3.064416 -3.892372,-5.608569 -7.090797,-7.735588 -4.977905,-3.31041 -10.352621,-4.938751 -16.315215,-4.942911 l -1.069933,-7.46e-4 -0.245472,0.433962 c -0.13501,0.23868 -0.468635,0.654717 -0.741388,0.924529 -1.625992,1.60845 -4.148843,1.591977 -5.779117,-0.03774 -0.885622,-0.885318 -1.296643,-1.935696 -1.225606,-3.132076 0.184067,-3.099975 3.379658,-4.896036 6.131437,-3.446135 0.507964,0.267644 1.281436,1.000277 1.50774,1.428134 l 0.149238,0.282152 h 0.955597 c 10.131625,0 18.657836,3.836541 24.571859,11.056604 2.212365,2.700938 3.618174,5.834788 4.147329,9.245283 0.194325,1.252459 0.17678,3.572226 -0.03596,4.754717 -0.489292,2.719663 -1.397066,4.515399 -3.256745,6.442413 -2.200498,2.280174 -5.12792,3.866915 -8.491876,4.602826 -1.493425,0.326706 -3.882241,0.480468 -5.385243,0.346634 z"
     id="path837"
     inkscape:connector-curvature="0" />
  <path
     style="fill:#000000;stroke-width:0.0754717"
     d="M 13.782401,55.609163 C 10.07315,55.277941 6.769571,53.97568 4.3466408,51.889614 1.9752481,49.84792 0.47006486,46.65772 0.10348171,42.896339 -0.0013913,41.820274 0.05350892,40.060746 0.22706614,38.935513 0.95390742,34.223142 3.7429236,29.879932 8.2409825,26.455801 c 0.4543502,-0.345872 0.4708898,-0.351863 0.5104657,-0.184874 0.2198913,0.927826 0.6664588,2.689213 0.7841637,3.09296 l 0.1473065,0.505284 -0.4154468,0.313666 c -0.6253781,0.472164 -1.9311341,1.754991 -2.6083628,2.562558 -1.6275125,1.940741 -2.757329,4.179448 -3.2375294,6.415094 -0.223097,1.038662 -0.2431221,3.006628 -0.040909,4.02037 0.2732833,1.370038 0.923365,2.977089 1.6761888,4.143667 1.7049922,2.64206 4.3169764,4.177157 7.9598408,4.678102 1.073341,0.1476 3.896346,0.125535 5.018868,-0.03923 2.957735,-0.434131 5.329439,-1.293942 8.415095,-3.050714 4.766516,-2.713745 8.138123,-5.968878 10.48344,-10.121285 l 0.528166,-0.935125 -0.251728,-0.310158 c -1.669801,-2.057384 -1.034817,-5.120456 1.313968,-6.338386 0.635739,-0.329654 1.176738,-0.456943 1.926154,-0.453193 1.795662,0.009 3.345443,1.14643 3.940582,2.892152 0.202172,0.593032 0.232016,1.699019 0.06298,2.334102 -0.411541,1.546221 -1.62911,2.696524 -3.213975,3.036416 l -0.366877,0.07868 -0.46635,0.881355 c -1.492743,2.821144 -3.130495,5.049311 -5.30955,7.223665 -3.331275,3.324088 -7.343412,5.717553 -11.929832,7.116818 -1.522756,0.464575 -3.922735,1.007235 -5.245283,1.186012 -1.033648,0.139724 -3.151794,0.193661 -4.13996,0.105421 z"
     id="path839"
     inkscape:connector-curvature="0" />
</svg>
