<?xml version="1.0" encoding="UTF-8" standalone="no"?>
<svg
   xmlns:dc="http://purl.org/dc/elements/1.1/"
   xmlns:cc="http://creativecommons.org/ns#"
   xmlns:rdf="http://www.w3.org/1999/02/22-rdf-syntax-ns#"
   xmlns:svg="http://www.w3.org/2000/svg"
   xmlns="http://www.w3.org/2000/svg"
   xmlns:sodipodi="http://sodipodi.sourceforge.net/DTD/sodipodi-0.dtd"
   xmlns:inkscape="http://www.inkscape.org/namespaces/inkscape"
   viewBox="0 0 530 599.70001"
   version="1.1"
   id="svg3737"
   sodipodi:docname="webpack.svg"
   width="530"
   height="599.70001"
   inkscape:version="0.92.4 (5da689c313, 2019-01-14)">
  <metadata
     id="metadata3743">
    <rdf:RDF>
      <cc:Work
         rdf:about="">
        <dc:format>image/svg+xml</dc:format>
        <dc:type
           rdf:resource="http://purl.org/dc/dcmitype/StillImage" />
        <dc:title>icon-square-small</dc:title>
      </cc:Work>
    </rdf:RDF>
  </metadata>
  <defs
     id="defs3741" />
  <sodipodi:namedview
     pagecolor="#ffffff"
     bordercolor="#666666"
     borderopacity="1"
     objecttolerance="10"
     gridtolerance="10"
     guidetolerance="10"
     inkscape:pageopacity="0"
     inkscape:pageshadow="2"
     inkscape:window-width="1920"
     inkscape:window-height="1017"
     id="namedview3739"
     showgrid="false"
     fit-margin-top="0"
     fit-margin-left="0"
     fit-margin-right="0"
     fit-margin-bottom="0"
     inkscape:pagecheckerboard="true"
     inkscape:zoom="1.4133333"
     inkscape:cx="265"
     inkscape:cy="299.79999"
     inkscape:window-x="-8"
     inkscape:window-y="-8"
     inkscape:window-maximized="1"
     inkscape:current-layer="svg3737" />
  <title
     id="title3729">icon-square-small</title>
  <path
     d="M 265,0 530,149.9 V 449.8 L 265,599.7 0,449.8 V 149.9 Z"
     id="path3731"
     inkscape:connector-curvature="0"
     style="fill:#ffffff" />
  <path
     d="M 482.7,439.4 273.8,557.7 v -92 L 404,394 Z M 497,426.5 V 179.3 l -76.4,44.1 v 159 z M 46.5,439.4 255.4,557.6 v -92 L 125.2,394 Z M 32.2,426.5 V 179.3 l 76.4,44.1 v 159 z M 41.1,163.3 255.4,42.1 v 89 l -137.3,75.5 -1.1,0.6 z M 488,163.3 273.8,42.1 v 89 l 137.2,75.6 1.1,0.6 z"
     id="path3733"
     inkscape:connector-curvature="0"
     style="fill:#8ed6fb" />
  <path
     d="M 255.4,444.7 127,374 V 234.1 l 128.4,74.1 z m 18.4,0 128.4,-70.6 v -140 l -128.4,74.1 z m -9.2,-141.8 z m -129,-85 129,-70.9 128.9,70.9 -128.9,74.4 z"
     id="path3735"
     inkscape:connector-curvature="0"
     style="fill:#1c78c0" />
  <path
     style="fill:#000000;stroke-width:0.70754719"
     d="M 79.14249,185.09393 41.51612,163.30083 147.7125,103.21598 C 206.12051,70.16931 254.17561,43.025 254.50161,42.89528 c 0.326,-0.12971 0.59273,19.6517 0.59273,43.958691 v 44.194539 l -68.98391,37.9399 c -37.94115,20.86694 -69.06438,37.93061 -69.16274,37.91927 -0.0983,-0.0113 -17.11069,-9.82754 -37.8052,-21.81375 z"
     id="path3745"
     inkscape:connector-curvature="0" />
  <path
     style="fill:#000000;stroke-width:0.70754719"
     d="M 343.00708,168.9928 274.19811,131.07227 V 86.906644 42.74102 l 1.97083,1.01915 c 4.35583,2.25249 209.9788,118.72017 210.49345,119.22638 0.43079,0.42374 -73.48286,43.96518 -74.58048,43.93427 -0.14623,-0.004 -31.22991,-17.07174 -69.07483,-37.92802 z"
     id="path3747"
     inkscape:connector-curvature="0" />
  <path
     style="fill:#000000;stroke-width:0.70754719"
     d="m 201.67453,255.74206 c -34.24528,-19.79194 -62.96694,-36.40715 -63.8259,-36.92269 -1.45074,-0.87072 2.91698,-3.40109 61.45072,-35.60052 34.65686,-19.06476 63.55445,-34.92259 64.21687,-35.23965 0.89051,-0.42621 17.69925,8.4931 64.49268,34.2221 34.80855,19.1392 63.65806,35.00002 64.11002,35.24627 0.72551,0.39529 -125.47058,73.84426 -127.41128,74.15623 -0.42293,0.068 -28.78783,-16.0698 -63.03311,-35.86174 z"
     id="path3749"
     inkscape:connector-curvature="0" />
  <path
     style="fill:#000000;stroke-width:0.70754719"
     d="M 190.87226,408.8082 127.0283,373.6598 v -69.64995 -69.64996 l 1.59198,1.00482 c 0.87559,0.55265 29.69045,17.20514 64.03302,37.00554 l 62.44104,36.00071 v 67.79282 c 0,37.28605 -0.0851,67.79282 -0.18906,67.79282 -0.10399,0 -28.91884,-15.81677 -64.03302,-35.1484 z"
     id="path3751"
     inkscape:connector-curvature="0" />
  <path
     style="fill:#000000;stroke-width:0.70754719"
     d="m 274.19811,376.1915 v -67.86853 l 63.34721,-36.54639 c 34.84097,-20.10052 63.49663,-36.54639 63.67925,-36.54639 0.18261,0 0.31921,31.28243 0.30352,69.51651 l -0.0285,69.51651 -57.37174,31.48585 c -31.55445,17.31721 -60.19728,33.0215 -63.65073,34.89841 l -6.279,3.41256 z"
     id="path3753"
     inkscape:connector-curvature="0" />
  <path
     style="fill:#000000;stroke-width:0.70754719"
     d="m 32.21698,303.16903 c 0,-67.72014 0.19182,-123.12752 0.42627,-123.12752 0.23445,0 17.42163,9.79068 38.19373,21.75707 l 37.76746,21.75708 0.0138,79.30847 0.0138,79.30846 -34.82152,20.10191 C 54.65869,413.33055 37.4653,423.25844 35.60298,424.33648 l -3.38604,1.96007 z"
     id="path3755"
     inkscape:connector-curvature="0" />
  <path
     style="fill:#000000;stroke-width:0.70754719"
     d="M 151.19433,498.44945 C 94.24391,466.19899 47.52887,439.69302 47.38313,439.54728 c -0.14574,-0.14574 17.27732,-10.38789 38.71792,-22.76033 30.01018,-17.31758 39.27632,-22.35747 40.25769,-21.89633 0.70113,0.32945 29.94555,16.35962 64.98758,35.62259 l 63.7128,35.02358 0.0176,45.81368 c 0.01,25.19753 -0.062,45.79624 -0.15928,45.77492 -0.0973,-0.0213 -46.77269,-26.42549 -103.72312,-58.67594 z"
     id="path3757"
     inkscape:connector-curvature="0" />
  <path
     style="fill:#000000;stroke-width:0.70754719"
     d="m 274.22904,511.39223 0.0309,-45.85544 64.3828,-35.37736 c 35.41054,-19.45754 64.81297,-35.37735 65.33874,-35.37735 0.52576,0 18.33269,10.02021 39.57095,22.26713 l 38.61502,22.26714 -1.92099,1.19156 c -1.05656,0.65536 -47.61087,27.04875 -103.45403,58.65198 -55.84316,31.60322 -101.77181,57.60156 -102.06368,57.77409 -0.29186,0.17253 -0.51674,-20.32126 -0.49973,-45.54175 z"
     id="path3759"
     inkscape:connector-curvature="0" />
  <path
     style="fill:#000000;stroke-width:0.70754719"
     d="m 458.69104,404.15381 -38.03066,-21.94102 0.008,-79.32856 0.008,-79.32857 37.87468,-21.84585 c 20.83107,-12.01521 38.02165,-21.69886 38.20129,-21.51922 0.17964,0.17964 0.24612,55.58158 0.14773,123.11542 l -0.17888,122.78881 z"
     id="path3761"
     inkscape:connector-curvature="0" />
</svg>
